# xmcd
#
# Track frame offsets: 
#        150
#        18443
#        43093
#        54536
#        74135
#        98930
#        118083
#        136258
#        158694
#        173562
#
# Disc length: 2531 seconds
#
# Revision: 0
# Processed by: cddbd v1.5.2PL0 Copyright (c) Steve Scherf et al.
# Submitted via: ExactAudioCopy v1.3
#
DISCID=8809e10a
DTITLE=Randy Pavlock and Twenty Four Seven - Fly On Live On
DYEAR=2019
DGENRE=Guitar Blues
TTITLE0=She's Getting To My Head
TTITLE1=Don't Go
TTITLE2=Love Struck Baby
TTITLE3=Heartbreak
TTITLE4=Fly On
TTITLE5=When I Breathe
TTITLE6=I May Be Bluffing
TTITLE7=Broken Heart
TTITLE8=Stew Somethin'
TTITLE9=Shake For Me
EXTD=
EXTT0=
EXTT1=
EXTT2=
EXTT3=
EXTT4=
EXTT5=
EXTT6=
EXTT7=
EXTT8=
EXTT9=
PLAYORDER=
